HIERARCHY
ROOT Hips
{
	OFFSET 0.00000 0.00000 0.00000
	CHANNELS 6 Xposition Yposition Zposition Zrotation Yrotation Xrotation 
	JOINT LHipJoint
	{
		OFFSET 0 0 0
		CHANNELS 3 Zrotation Yrotation Xrotation
		JOINT LeftHip
		{
			OFFSET 1.30186 -1.90722 0.65024
			CHANNELS 3 Zrotation Yrotation Xrotation
			JOINT LeftKnee
			{
				OFFSET 2.56413 -7.04489 0.00000
				CHANNELS 3 Zrotation Yrotation Xrotation
				JOINT LeftAnkle
				{
					OFFSET 2.79321 -7.67428 0.00000
					CHANNELS 3 Zrotation Yrotation Xrotation
					JOINT LeftToe
					{
						OFFSET 0.15723 -0.43198 2.08537
						CHANNELS 3 Zrotation Yrotation Xrotation
						End Site
						{
							OFFSET 0.00000 -0.00000 1.07411
						}
					}
				}
			}
		}
	}
	JOINT RHipJoint
	{
		OFFSET 0 0 0
		CHANNELS 3 Zrotation Yrotation Xrotation
		JOINT RightHip
		{
			OFFSET -1.28627 -1.90723 0.65024
			CHANNELS 3 Zrotation Yrotation Xrotation
			JOINT RightKnee
			{
				OFFSET -2.56567 -7.04913 0.00000
				CHANNELS 3 Zrotation Yrotation Xrotation
				JOINT RightAnkle
				{
					OFFSET -2.75597 -7.57198 0.00000
					CHANNELS 3 Zrotation Yrotation Xrotation
					JOINT RightToe
					{
						OFFSET -0.17500 -0.48081 2.22901
						CHANNELS 3 Zrotation Yrotation Xrotation
						End Site
						{
							OFFSET -0.00000 -0.00000 1.14762
						}
					}
				}
			}
		}
	}
	JOINT lowerback
	{
		OFFSET 0 0 0
		CHANNELS 3 Zrotation Yrotation Xrotation
		JOINT Chest
		{
			OFFSET -0.04522 2.07467 -0.16566
			CHANNELS 3 Zrotation Yrotation Xrotation
			JOINT Chest2
			{
				OFFSET -0.01178 2.08825 -0.05393
				CHANNELS 3 Zrotation Yrotation Xrotation
				JOINT lowerneck
				{
					OFFSET 0 0 0
					CHANNELS 3 Zrotation Yrotation Xrotation
					JOINT Neck
					{
						OFFSET -0.05182 1.80489 0.16014
						CHANNELS 3 Zrotation Yrotation Xrotation
						JOINT Head
						{
							OFFSET 0.14739 1.78840 -0.33342
							CHANNELS 3 Zrotation Yrotation Xrotation
							End Site
							{
								OFFSET 0.04364 1.83899 -0.13460
							}
						}
					}
				}
				JOINT LeftCollar
				{
					OFFSET 0 0 0
					CHANNELS 3 Zrotation Yrotation Xrotation
					JOINT LeftShoulder
					{
						OFFSET 3.01264 1.29090 -0.06579
CHANNELS 3 Zrotation Xrotation Yrotation
						JOINT LeftElbow
						{
OFFSET 0 -5.556800 0.000000
CHANNELS 3 Zrotation Xrotation Yrotation
							JOINT LeftWrist
							{
OFFSET 0 -3.639790 -0.000000
CHANNELS 3 Zrotation Xrotation Yrotation
								JOINT lhand
								{
									OFFSET 0 0 0
CHANNELS 3 Zrotation Xrotation Yrotation
									JOINT LFingers
									{
OFFSET 0 -0.569420 -0.000000
CHANNELS 3 Zrotation Xrotation Yrotation
										End Site
										{
OFFSET 0 -0.459080 -0.000000
										}
									}
								}
								JOINT LThumb
								{
OFFSET 0 0.000000 0.000000
CHANNELS 3 Zrotation Xrotation Yrotation
									End Site
									{
OFFSET 0 -0.466090 0.466090
									}
								}
							}
						}
					}
				}
				JOINT RightCollar
				{
					OFFSET 0 0 0
					CHANNELS 3 Zrotation Yrotation Xrotation
					JOINT RightShoulder
					{
						OFFSET -3.15796 1.37283 -0.36748
CHANNELS 3 Zrotation Xrotation Yrotation
						JOINT RightElbow
						{
OFFSET 0 -5.343390 0.000000
CHANNELS 3 Zrotation Xrotation Yrotation
							JOINT RightWrist
							{
OFFSET 0 -3.651010 -0.000000
CHANNELS 3 Zrotation Xrotation Yrotation
								JOINT rhand
								{
									OFFSET 0 0 0
CHANNELS 3 Zrotation Xrotation Yrotation
									JOINT RFingers
									{
OFFSET 0 -0.694250 -0.000000
CHANNELS 3 Zrotation Xrotation Yrotation
										End Site
										{
OFFSET 0 -0.559720 -0.000000
										}
									}
								}
								JOINT RThumb
								{
OFFSET 0 0.000000 0.000000
CHANNELS 3 Zrotation Xrotation Yrotation
									End Site
									{
OFFSET 0 -0.568270 0.568270
									}
								}
							}
						}
					}
				}
			}
		}
	}
}
MOTION
Frames: 4
Frame Time: 0.008333333333333333
12.818300 18.437500 11.495900 177.557000 4.446200 -174.853000 0.000000 0.000000 0.000000 -11.025700 -12.757100 -16.756100 2.811100 10.382700 30.225200 0.439100 -0.802500 -12.263800 0.852200 -5.887500 -16.458400 0.000000 0.000000 0.000000 20.574500 7.801300 -2.939300 -2.023700 -8.915300 25.530900 -1.091500 -9.525700 -25.323700 -0.834900 -5.828800 16.288600 -0.215200 2.433500 -0.816700 -0.740800 3.280000 1.347900 -0.557800 1.648600 1.869600 -0.136100 2.522900 -3.798100 -6.513700 3.643300 8.220000 -1.981900 1.417900 3.478100 0.000000 0.000000 0.000000 3.412600 7.977000 -5.145000 18.954600 -29.362200 5.008600 19.634000 5.946800 -20.387400 0.000000 0.000000 0.000000 -7.125000 0.000000 0.000000 -8.969200 51.296400 1.400600 0.000000 0.000000 0.000000 -1.961100 7.787100 9.600600 -18.146900 -28.344800 -4.618800 -20.120000 -6.160100 -30.185100 0.000000 0.000000 0.000000 7.125000 0.000000 -0.000000 6.316600 -1.626000 6.532700
12.855136 18.427338 11.523836 177.535003 5.004286 -174.793643 0.000000 0.000000 0.000000 -10.761300 -12.560389 -18.481926 3.235287 11.065845 32.502844 0.367167 -0.372604 -11.320261 0.848041 -5.873278 -16.417172 0.000000 0.000000 0.000000 20.629102 8.394344 -3.169112 -2.087468 -9.045954 25.939109 -1.084914 -9.482641 -25.238151 -0.892316 -6.020688 16.844456 -0.564442 2.353039 -0.550173 -0.766104 3.174002 1.212324 -0.407787 1.591467 1.562450 -0.448354 1.868766 -3.939861 -5.494013 2.741054 8.639969 -1.623270 0.998249 3.585045 0.000000 0.000000 0.000000 3.614228 7.994558 -6.205184 19.456922 -29.982141 5.257365 21.114537 6.913852 -21.443511 0.000000 0.000000 0.000000 -7.125000 0.000000 0.000000 -7.855971 52.643674 1.486379 0.000000 0.000000 0.000000 -1.513481 7.953116 8.803898 -17.823859 -27.930993 -4.466466 -19.918164 -6.019596 -30.978857 0.000000 0.000000 0.000000 7.125000 0.000000 0.000000 6.533166 -2.392627 6.845182
12.870262 18.421393 11.525959 177.553095 5.017633 -175.057441 0.000000 0.000000 0.000000 -10.452242 -12.603906 -20.114767 3.836388 11.938029 35.515054 0.282837 -0.293803 -9.944553 0.898991 -6.041781 -16.906040 0.000000 0.000000 0.000000 20.874412 8.749232 -2.691103 -2.101058 -9.073417 26.025365 -1.128360 -9.549602 -25.629593 -1.069269 -6.573494 18.457787 -0.838375 1.787772 -0.103944 -0.446878 2.426556 1.611847 0.050034 1.215261 1.693788 -1.453172 1.727614 -6.209901 -4.728804 2.698325 10.169320 -1.196047 0.903479 4.543680 0.000000 0.000000 0.000000 2.950967 7.644917 -6.474593 20.237680 -30.927481 5.653064 23.219213 7.607148 -22.348348 0.000000 0.000000 0.000000 -7.125000 0.000000 0.000000 -6.000360 53.991568 1.297412 0.000000 0.000000 0.000000 -1.884017 6.896305 9.096139 -17.225206 -27.153659 -4.189593 -21.563192 -6.774862 -30.726285 0.000000 0.000000 0.000000 7.125000 0.000000 0.000000 5.559816 -2.466865 5.820886
12.867026 18.415549 11.525709 177.956568 5.526194 -175.355686 0.000000 0.000000 0.000000 -9.691421 -12.846596 -21.937321 4.616827 12.937071 39.136276 0.221256 -0.190706 -8.816633 0.461220 -4.345751 -12.053231 0.000000 0.000000 0.000000 21.135362 8.019085 -2.689263 -2.098733 -9.068853 26.010913 -1.155590 -8.814032 -25.272191 -0.954067 -6.219884 17.423853 -0.349697 1.697546 0.645096 -0.322507 2.295656 1.565446 -0.123728 1.157388 1.240672 -1.750917 1.141538 -6.294460 -4.273481 2.541002 10.537050 -0.976987 1.094131 4.680308 0.000000 0.000000 0.000000 2.859752 7.762372 -7.225353 20.597485 -31.355354 5.839104 18.770178 4.240601 -17.182768 0.000000 0.000000 0.000000 -7.125000 0.000000 0.000000 -8.814111 47.879020 0.602795 0.000000 0.000000 0.000000 -1.669555 7.601455 9.135388 -17.291211 -27.240095 -4.219798 -22.257176 -7.154315 -29.650628 0.000000 0.000000 0.000000 7.125000 0.000000 0.000000 5.012919 -1.507352 5.162700
